Coordinates
version=1
nRows=4
nColumns=107
inDegrees=yes

Units are S.I. units (second, meters, Newtons, ...)
If the header above contains a line with 'inDegrees', this indicates whether rotational values are in degrees (yes) or radians (no).

endheader
time	sternoclavicular_r2	sternoclavicular_r3	unrotscap_r3	unrotscap_r2	acromioclavicular_r2	acromioclavicular_r3	acromioclavicular_r1	unrothum_r1	unrothum_r3	unrothum_r2	elv_angle	shoulder_elv	shoulder1_r2	shoulder_rot	elbow_flexion	pro_sup	deviation	flexion	proximal_distal_r1	proximal_distal_r3	cmc_flexion	cmc_abduction	mp_flexion	ip_flexion	mcp2_flexion	mcp2_abduction	pm2_flexion	md2_flexion	mcp3_flexion	mcp3_abduction	pm3_flexion	md3_flexion	mcp4_flexion	mcp4_abduction	pm4_flexion	md4_flexion	mcp5_flexion	mcp5_abduction	pm5_flexion	md5_flexion	bicpt_tx	bicpt_ty	bicpt_tz	bicpt2_tx	bicpt2_ty	bicpt2_tz	ptpt_tx	ptpt_ty	ptpt_tz	FCUpt_tx	FCUpt_ty	FCUpt_tz	EDCpt_tx	EDCpt_ty	EDCpt_tz	APLpt_tx	APLpt_ty	APLpt_tz	FPLpt_tx	FPLpt_ty	FPLpt_tz	FPLpt2_tx	FPLpt2_ty	FPLpt2_tz	PEC1pt2_tx	PEC1pt2_ty	PEC1pt2_tz	PEC1pt3_tx	PEC1pt3_ty	PEC1pt3_tz	PEC2pt2_tx	PEC2pt2_ty	PEC2pt2_tz	PEC2pt3_tx	PEC2pt3_ty	PEC2pt3_tz	PEC3pt2_tx	PEC3pt2_ty	PEC3pt2_tz	PEC3pt3_tx	PEC3pt3_ty	PEC3pt3_tz	DELT2pt2a_tx	DELT2pt2a_ty	DELT2pt2a_tz	DELT2pt2_tx	DELT2pt2_ty	DELT2pt2_tz	LAT1pt2_tx	LAT1pt2_ty	LAT1pt2_tz	LAT1pt3_tx	LAT1pt3_ty	LAT1pt3_tz	LAT2pt2_tx	LAT2pt2_ty	LAT2pt2_tz	LAT2pt3_tx	LAT2pt3_ty	LAT2pt3_tz	LAT3pt2_tx	LAT3pt2_ty	LAT3pt2_tz	LAT3pt3_tx	LAT3pt3_ty	LAT3pt3_tz
      0.43333333	     -0.31406044	      0.13302118	     -0.13302118	      0.31406044	     -0.06359085	      0.51391889	      0.23100300	     -0.23100300	     -0.51391889	      0.06359085	    102.29121829	     74.35660065	     -1.78531856	    -38.94594984	     30.14985853	     83.07794650	      0.34285827	     -0.61866611	      0.36909051	     -0.30933305	     39.56616145	    -11.45331025	     14.32572500	      6.65514275	     91.07675851	     11.84865069	     83.72066533	     78.46434491	     87.72995693	      1.72465232	     84.35501212	     57.22629063	     81.62213475	    -12.93203628	     91.78897929	     46.08064523	     87.93381344	    -14.06554213	     86.40140427	      5.59379006	      0.00089726	     -0.03105563	     -0.00485661	      0.01453219	     -0.01839036	     -0.00157045	      0.00141148	     -0.06886927	     -0.00674237	      0.01240364	     -0.18233548	      0.00000653	     -0.00996933	      0.00341898	     -0.00066571	      0.00031247	      0.00012499	      0.00062493	      0.00039996	      0.00119987	      0.00067493	     -0.00001097	     -0.00011944	     -0.00014333	      0.00243725	      0.00855102	      0.00594853	     -0.00797269	      0.01925011	     -0.01825869	      0.00243725	      0.00855102	      0.00594853	      0.00053702	      0.01784560	     -0.00937720	      0.00387881	      0.00475511	      0.01579617	      0.00000000	      0.00739176	      0.00000000	     -0.00698126	     -0.03226253	     -0.00609258	      0.02230853	     -0.00107255	     -0.01229789	     -0.00086749	      0.01454086	     -0.00594853	      0.00239594	      0.02098510	     -0.01734989	     -0.00582461	      0.01259932	     -0.00532889	     -0.01214492	      0.02660316	     -0.02978397	     -0.02280271	      0.01408646	     -0.00714650	     -0.01511919	      0.03073409	     -0.03721964
      0.46666667	     -0.31431711	      0.13312989	     -0.13312989	      0.31431711	     -0.06364282	      0.51433890	      0.23119180	     -0.23119180	     -0.51433890	      0.06364282	    102.18809425	     74.41737047	     -1.78351870	    -38.52524479	     30.16199109	     82.97787890	      0.34945024	     -0.60275440	      0.37430083	     -0.30137720	     39.56944200	    -11.48741162	     14.27832328	      7.05546943	     91.10234390	     11.86681654	     83.68373412	     79.04303342	     87.74903204	      1.74801050	     84.26056202	     57.71537074	     81.54765199	    -12.92979094	     91.84126636	     45.91032736	     87.93755348	    -14.06233926	     86.16658740	      5.60866051	      0.00089766	     -0.03105703	     -0.00485684	      0.01454185	     -0.01839365	     -0.00158717	      0.00141887	     -0.06886449	     -0.00673431	      0.01239224	     -0.18233878	      0.00000400	     -0.00995732	      0.00341358	     -0.00066265	      0.00031245	      0.00012498	      0.00062489	      0.00039993	      0.00119979	      0.00067488	     -0.00001097	     -0.00011939	     -0.00014326	      0.00243924	      0.00855800	      0.00595339	     -0.00797920	      0.01926585	     -0.01827361	      0.00243924	      0.00855800	      0.00595339	      0.00053746	      0.01786018	     -0.00938487	      0.00388115	      0.00475900	      0.01580205	      0.00000000	      0.00740392	      0.00000000	     -0.00698697	     -0.03228890	     -0.00610268	      0.02217124	     -0.00105732	     -0.01205416	     -0.00086820	      0.01455274	     -0.00595339	      0.00239790	      0.02100225	     -0.01736407	     -0.00582937	      0.01260962	     -0.00533325	     -0.01215485	      0.02662490	     -0.02980832	     -0.02282135	      0.01409797	     -0.00715234	     -0.01513154	      0.03075921	     -0.03725006
      0.50000000	     -0.31886667	      0.13505687	     -0.13505687	      0.31886667	     -0.06456402	      0.52178366	      0.23453816	     -0.23453816	     -0.52178366	      0.06456402	    101.30368856	     75.49451921	     -1.76808291	    -33.49110696	     28.66809500	     76.24256965	      0.31868440	     -0.75192400	      0.34937228	     -0.37596200	     39.16028916	    -11.22929171	     13.32494996	      6.98549175	     91.80667362	     11.44157001	     83.23705279	     80.60700471	     88.74890030	      1.00742911	     83.72745041	     59.83331859	     82.68894507	    -13.13090271	     92.29665145	     45.67757463	     89.77777875	    -14.09677190	     86.82136207	      5.53786225	      0.00084825	     -0.03088580	     -0.00482926	      0.01513980	     -0.01798783	     -0.00268035	      0.00191653	     -0.06854269	     -0.00619175	      0.01163177	     -0.18255467	     -0.00014916	     -0.00914909	      0.00305723	     -0.00046967	      0.00029594	      0.00011838	      0.00059188	      0.00037880	      0.00113641	      0.00063923	     -0.00001139	     -0.00012708	     -0.00015250	      0.00247454	      0.00868188	      0.00603957	     -0.00809470	      0.01954471	     -0.01853811	      0.00247454	      0.00868188	      0.00603957	      0.00054524	      0.01811870	     -0.00952071	      0.00392240	      0.00482788	      0.01590487	      0.00000000	      0.00762126	      0.00000000	     -0.00708810	     -0.03275626	     -0.00628318	      0.02034446	     -0.00087791	     -0.00926994	     -0.00088077	      0.01476339	     -0.00603957	      0.00243260	      0.02130625	     -0.01761540	     -0.00591374	      0.01279214	     -0.00541045	     -0.01233078	      0.02701028	     -0.03023977	     -0.02315167	      0.01430203	     -0.00725587	     -0.01535057	      0.03120443	     -0.03778923
      0.53333333	     -0.31411439	      0.13304403	     -0.13304403	      0.31411439	     -0.06360177	      0.51400717	      0.23104269	     -0.23104269	     -0.51400717	      0.06360177	    102.21313320	     74.36937435	     -1.78395571	    -38.70045473	     30.22952305	     83.14547222	      0.34778854	     -0.59911725	      0.37299416	     -0.29955863	     39.45868702	    -11.44584637	     14.45240634	      6.76950504	     90.96034455	     11.85264395	     83.70983821	     79.22997592	     87.62265841	      1.74182312	     84.28235947	     57.59146112	     81.59235721	    -12.91561594	     91.72058040	     46.19805332	     87.67025969	    -14.06452695	     86.40598584	      5.58607949	      0.00089990	     -0.03106477	     -0.00485808	      0.01452565	     -0.01841200	     -0.00155916	      0.00140649	     -0.06887250	     -0.00674781	      0.01241134	     -0.18233324	      0.00000824	     -0.00997743	      0.00342262	     -0.00066777	      0.00031243	      0.00012497	      0.00062485	      0.00039990	      0.00119971	      0.00067484	     -0.00001108	     -0.00012148	     -0.00014577	      0.00243766	      0.00855249	      0.00594955	     -0.00797406	      0.01925342	     -0.01826183	      0.00243766	      0.00855249	      0.00594955	      0.00053711	      0.01784866	     -0.00937881	      0.00387930	      0.00475593	      0.01579740	      0.00000000	      0.00739432	      0.00000000	     -0.00698246	     -0.03226807	     -0.00609470	      0.02222876	     -0.00106366	     -0.01215543	     -0.00086764	      0.01454336	     -0.00594955	      0.00239635	      0.02098871	     -0.01735287	     -0.00582561	      0.01260149	     -0.00532981	     -0.01214701	      0.02660773	     -0.02978909	     -0.02280663	      0.01408888	     -0.00714773	     -0.01512179	      0.03073937	     -0.03722603
